{
    "asset" : {
        "generator" : "Khronos glTF Blender I/O v0.9.36",
        "version" : "2.0"
    },
    "scene" : 0,
    "scenes" : [
        {
            "name" : "Scene",
            "nodes" : [
                0
            ]
        }
    ],
    "nodes" : [
        {
            "mesh" : 0,
            "name" : "Text",
            "rotation" : [
                0.7071067690849304,
                0,
                0,
                0.7071067690849304
            ],
            "scale" : [
                1.7839374542236328,
                1.7839374542236328,
                1.7839374542236328
            ],
            "translation" : [
                0.04295516014099121,
                0.6902492046356201,
                0
            ]
        }
    ],
    "materials" : [
        {
            "doubleSided" : true,
            "name" : "Material.001",
            "pbrMetallicRoughness" : {
                "baseColorFactor" : [
                    0,
                    0,
                    0,
                    1
                ],
                "metallicFactor" : 0,
                "roughnessFactor" : 0.5
            }
        }
    ],
    "meshes" : [
        {
            "name" : "Text",
            "primitives" : [
                {
                    "attributes" : {
                        "POSITION" : 0,
                        "NORMAL" : 1
                    },
                    "indices" : 2,
                    "material" : 0
                }
            ]
        }
    ],
    "accessors" : [
        {
            "bufferView" : 0,
            "componentType" : 5126,
            "count" : 1445,
            "max" : [
                1.2416976690292358,
                0,
                0.38222622871398926
            ],
            "min" : [
                -1.2263023853302002,
                -0.12027068436145782,
                -0.29977381229400635
            ],
            "type" : "VEC3"
        },
        {
            "bufferView" : 1,
            "componentType" : 5126,
            "count" : 1445,
            "type" : "VEC3"
        },
        {
            "bufferView" : 2,
            "componentType" : 5123,
            "count" : 2616,
            "type" : "SCALAR"
        }
    ],
    "bufferViews" : [
        {
            "buffer" : 0,
            "byteLength" : 17340,
            "byteOffset" : 0
        },
        {
            "buffer" : 0,
            "byteLength" : 17340,
            "byteOffset" : 17340
        },
        {
            "buffer" : 0,
            "byteLength" : 5232,
            "byteOffset" : 34680
        }
    ],
    "buffers" : [
        {
            "byteLength" : 39912,
            "uri" : "data:application/octet-stream;base64,"
        }
    ]
}
