{"accessors":[{"bufferView":0,"componentType":5123,"count":4800,"max":[2727],"min":[0],"type":"SCALAR"},{"bufferView":1,"componentType":5126,"count":2728,"max":[5.490000247955322,0.2720224857330322,0.11800000816583633],"min":[0.04500000178813934,0.0,-0.8770000338554382],"type":"VEC3"},{"bufferView":2,"componentType":5126,"count":2728,"max":[1.0,1.0,1.0],"min":[-1.0,-1.0,-1.0],"type":"VEC3"}],"asset":{"generator":"Khronos Blender glTF 2.0 exporter","version":"2.0"},"bufferViews":[{"buffer":0,"byteLength":9600,"byteOffset":0,"target":34963},{"buffer":0,"byteLength":32736,"byteOffset":9600,"target":34962},{"buffer":0,"byteLength":32736,"byteOffset":42336,"target":34962}],"buffers":[{"byteLength":75072,"uri":"data:application/octet-stream;base64,"}],"materials":[{"name":"Material.001","pbrMetallicRoughness":{"baseColorFactor":[0.800000011920929,0.0,0.0,1.0],"metallicFactor":0.0}}],"meshes":[{"name":"CUText.002","primitives":[{"attributes":{"NORMAL":2,"POSITION":1},"indices":0,"material":0}]}],"nodes":[{"mesh":0,"name":"Text"}],"scene":0,"scenes":[{"name":"Scene","nodes":[0]}]}
