{
    "asset" : {
        "generator" : "Khronos glTF Blender I/O v0.9.36",
        "version" : "2.0"
    },
    "scene" : 0,
    "scenes" : [
        {
            "name" : "Scene",
            "nodes" : [
                0
            ]
        }
    ],
    "nodes" : [
        {
            "mesh" : 0,
            "name" : "Text",
            "scale" : [
                0.6798558831214905,
                0.6798558831214905,
                0.6798558831214905
            ]
        }
    ],
    "materials" : [
        {
            "doubleSided" : true,
            "name" : "Material.002",
            "pbrMetallicRoughness" : {
                "baseColorFactor" : [
                    1,
                    0,
                    0,
                    0
                ],
                "metallicFactor" : 0,
                "roughnessFactor" : 0.5
            }
        }
    ],
    "meshes" : [
        {
            "name" : "Text",
            "primitives" : [
                {
                    "attributes" : {
                        "POSITION" : 0,
                        "NORMAL" : 1
                    },
                    "indices" : 2,
                    "material" : 0
                }
            ]
        }
    ],
    "accessors" : [
        {
            "bufferView" : 0,
            "componentType" : 5126,
            "count" : 1445,
            "max" : [
                1.2416973114013672,
                0.05625560134649277,
                0.3822261095046997
            ],
            "min" : [
                -1.2263027429580688,
                -0.05625557154417038,
                -0.2997739315032959
            ],
            "type" : "VEC3"
        },
        {
            "bufferView" : 1,
            "componentType" : 5126,
            "count" : 1445,
            "type" : "VEC3"
        },
        {
            "bufferView" : 2,
            "componentType" : 5123,
            "count" : 2616,
            "type" : "SCALAR"
        }
    ],
    "bufferViews" : [
        {
            "buffer" : 0,
            "byteLength" : 17340,
            "byteOffset" : 0
        },
        {
            "buffer" : 0,
            "byteLength" : 17340,
            "byteOffset" : 17340
        },
        {
            "buffer" : 0,
            "byteLength" : 5232,
            "byteOffset" : 34680
        }
    ],
    "buffers" : [
        {
            "byteLength" : 39912,
            "uri" : "data:application/octet-stream;base64,"
        }
    ]
}
