{
    "asset" : {
        "generator" : "Khronos glTF Blender I/O v0.9.36",
        "version" : "2.0"
    },
    "scene" : 0,
    "scenes" : [
        {
            "name" : "Scene",
            "nodes" : [
                0
            ]
        }
    ],
    "nodes" : [
        {
            "mesh" : 0,
            "name" : "Text.001",
            "scale" : [
                0.6798558831214905,
                0.6798558831214905,
                0.6798558831214905
            ]
        }
    ],
    "animations" : [
        {
            "channels" : [
                {
                    "sampler" : 0,
                    "target" : {
                        "node" : 0,
                        "path" : "rotation"
                    }
                }
            ],
            "name" : "TextAction.003",
            "samplers" : [
                {
                    "input" : 4,
                    "interpolation" : "CUBICSPLINE",
                    "output" : 5
                }
            ]
        }
    ],
    "materials" : [
        {
            "doubleSided" : true,
            "name" : "Material.003",
            "pbrMetallicRoughness" : {
                "baseColorFactor" : [
                    0.8000000715255737,
                    0.0008373012533411384,
                    0,
                    1
                ],
                "metallicFactor" : 0,
                "roughnessFactor" : 0.5
            }
        }
    ],
    "meshes" : [
        {
            "name" : "Text.003",
            "primitives" : [
                {
                    "attributes" : {
                        "POSITION" : 0,
                        "NORMAL" : 1,
                        "TEXCOORD_0" : 2
                    },
                    "indices" : 3,
                    "material" : 0
                }
            ]
        }
    ],
    "accessors" : [
        {
            "bufferView" : 0,
            "componentType" : 5126,
            "count" : 2176,
            "max" : [
                1.2416973114013672,
                0.17775043845176697,
                0.3822261095046997
            ],
            "min" : [
                -1.2263027429580688,
                -0.05625557154417038,
                -0.2997739315032959
            ],
            "type" : "VEC3"
        },
        {
            "bufferView" : 1,
            "componentType" : 5126,
            "count" : 2176,
            "type" : "VEC3"
        },
        {
            "bufferView" : 2,
            "componentType" : 5126,
            "count" : 2176,
            "type" : "VEC2"
        },
        {
            "bufferView" : 3,
            "componentType" : 5123,
            "count" : 2616,
            "type" : "SCALAR"
        },
        {
            "bufferView" : 4,
            "componentType" : 5126,
            "count" : 6,
            "max" : [
                5.458333333333333
            ],
            "min" : [
                0.041666666666666664
            ],
            "type" : "SCALAR"
        },
        {
            "bufferView" : 5,
            "componentType" : 5126,
            "count" : 18,
            "type" : "VEC4"
        }
    ],
    "bufferViews" : [
        {
            "buffer" : 0,
            "byteLength" : 26112,
            "byteOffset" : 0
        },
        {
            "buffer" : 0,
            "byteLength" : 26112,
            "byteOffset" : 26112
        },
        {
            "buffer" : 0,
            "byteLength" : 17408,
            "byteOffset" : 52224
        },
        {
            "buffer" : 0,
            "byteLength" : 5232,
            "byteOffset" : 69632
        },
        {
            "buffer" : 0,
            "byteLength" : 24,
            "byteOffset" : 74864
        },
        {
            "buffer" : 0,
            "byteLength" : 288,
            "byteOffset" : 74888
        }
    ],
    "buffers" : [
        {
            "byteLength" : 75176,
            "uri" : "data:application/octet-stream;base64,"
        }
    ]
}
